<?xml version="1.0" encoding="utf-8"?>
<!-- Generator: Adobe Illustrator 23.0.0, SVG Export Plug-In . SVG Version: 6.00 Build 0)  -->
<svg version="1.1" id="Layer_1" xmlns="http://www.w3.org/2000/svg" xmlns:xlink="http://www.w3.org/1999/xlink" x="0px" y="0px"
	 viewBox="0 0 1200 1200" style="enable-background:new 0 0 1200 1200;" xml:space="preserve">
<style type="text/css">
	.st0{fill:#FFFFFF;}
	.st1{fill:#29ABE2;}
	.st2{fill:#353D51;}
	.st3{fill:#1C7499;}
	.st4{fill:#B3B3B3;}
	.st5{fill:none;}
</style>
<rect class="st1" width="1200" height="1200"/>
<g>
	<polygon class="st2" points="948.37,393.51 944.7,445.14 996.33,445.14 1000,393.51 	"/>
	<polygon class="st2" points="955.7,290.27 904.08,290.27 900.41,341.9 952.04,341.9 	"/>
	<polygon class="st2" points="896.74,393.51 845.13,393.51 841.46,445.14 893.08,445.14 	"/>
	<polygon class="st2" points="620.31,651.62 671.93,651.62 675.59,600.01 623.98,600.01 	"/>
	<polygon class="st2" points="627.65,548.38 679.26,548.38 682.92,496.77 631.31,496.77 	"/>
	<path class="st2" d="M565.02,703.25l14.66-206.48H424.81l-18.33,258.1h103.24l-11,154.87h51.63l11-154.87h103.24l3.67-51.61H565.02
		z M461.78,703.25l11-154.87h51.61l-11,154.87H461.78z"/>
	<polygon class="st2" points="306.91,703.25 203.67,703.25 200,754.86 354.87,754.86 373.2,496.77 321.57,496.77 	"/>
	<polygon class="st0" points="269.92,496.77 271.83,469.94 220.22,469.94 216.93,516.33 216.94,516.33 207.33,651.62 258.96,651.62 
		269.96,496.77 	"/>
	<polygon class="st0" points="797.14,341.91 800.8,290.31 444.2,290.31 440.54,341.91 	"/>
	<path class="st2" d="M837.79,496.77l-11,154.85h103.24l-3.67,51.63H771.5l21.97-309.73h-51.6l-25.65,361.35h258.11l18.33-258.1
		H837.79z M933.71,600.01h-51.63l3.67-51.63h51.63L933.71,600.01z"/>
	<polygon class="st4" points="220.22,469.94 271.83,469.94 273.09,452.15 221.49,452.15 	"/>
	<polygon class="st0" points="371.73,333.55 286.9,400.54 276.15,409 221.49,452.15 414.91,452.15 426.41,290.31 	"/>
	<polygon class="st4" points="444.2,290.31 426.41,290.31 422.74,341.91 440.54,341.91 	"/>
	<g>
		<path class="st0" d="M588.03,786.83h18.14l17.09,66.21L650,786.83h18.14l-37.41,87.18h-17.79L588.03,786.83z"/>
		<path class="st0" d="M725.8,874.01h-15.43l0.66-9.31c-4.66,7.54-13.53,11.31-22.6,11.31c-20.73,0-31.72-16.14-30.43-34.4
			c1.45-20.38,17.16-34.28,35.31-34.28c11.78,0,18.53,6.24,20.98,11.43l0.67-9.43h15.43L725.8,874.01z M673.41,841.97
			c-0.57,8.01,4.38,19.68,18.28,19.68c8.6,0,14.57-4.48,17.94-10.37c1.73-2.83,2.66-5.89,3.12-9.07c0.34-3.06-0.03-6.25-1.12-9.07
			c-2.28-6.13-7.91-11.43-17.21-11.43c-12.49,0-20.28,10.13-20.99,20.15L673.41,841.97z"/>
		<path class="st0" d="M749.1,821.23h-10.72l0.85-11.9h10.72l1.6-22.5h15.43l-1.6,22.5h11.08l-0.85,11.9h-11.08l-3.75,52.78h-15.43
			L749.1,821.23z"/>
		<path class="st0" d="M776.87,841.5c1.17-16.49,14.55-34.05,37.06-34.05c22.5,0,33.39,17.55,32.21,34.16
			c-1.19,16.73-14.57,34.28-37.07,34.28c-22.5,0-33.39-17.56-32.2-34.28L776.87,841.5z M792.29,841.73
			c-0.8,11.31,7.2,19.67,17.81,19.67s19.68-8.36,20.49-19.79c0.81-11.43-7.08-19.79-17.68-19.79s-19.8,8.36-20.61,19.79
			L792.29,841.73z"/>
		<path class="st0" d="M854.62,841.5c1.17-16.49,14.55-34.05,37.06-34.05s33.39,17.55,32.21,34.16
			c-1.19,16.73-14.57,34.28-37.07,34.28s-33.39-17.56-32.2-34.28L854.62,841.5z M870.04,841.73c-0.8,11.31,7.2,19.67,17.81,19.67
			c10.6,0,19.68-8.36,20.49-19.79c0.81-11.43-7.08-19.79-17.68-19.79c-10.6,0-19.8,8.36-20.61,19.79L870.04,841.73z"/>
		<path class="st0" d="M937.95,809.33h14.61l-0.6,8.48c3.24-5.77,8.87-10.37,18.65-10.49l-1.1,15.55h-0.71
			c-10.84,0-16.73,5.07-17.53,16.26l-2.48,34.87h-15.43L937.95,809.33z"/>
	</g>
</g>
</svg>
